<?xml version="1.0" encoding="UTF-8"?>
<svg version="1.1" xmlns="http://www.w3.org/2000/svg" width="500" height="500">
<path d="M0 0 C0.80118256 -0.00945648 1.60236511 -0.01891296 2.42782593 -0.02865601 C3.28518341 -0.02258331 4.14254089 -0.01651062 5.02587891 -0.01025391 C5.91602692 -0.01312408 6.80617493 -0.01599426 7.72329712 -0.01895142 C9.60443763 -0.02099069 11.48559941 -0.01547035 13.36669922 -0.00292969 C16.23535045 0.01308816 19.10258467 -0.00276324 21.97119141 -0.02197266 C23.80192367 -0.01998946 25.63265505 -0.0161442 27.46337891 -0.01025391 C28.31668793 -0.0163266 29.16999695 -0.02239929 30.04916382 -0.02865601 C35.08283095 0.03029329 38.46701151 0.69048999 42.87744141 3.38818359 C43.69922175 10.47105927 40.85322036 15.38849836 37.68017578 21.59326172 C37.12731903 22.7016037 36.57446228 23.80994568 36.00485229 24.95187378 C34.48964945 27.98246283 32.9622771 31.00629508 31.42900658 34.02774239 C29.81866819 37.20817121 28.22403343 40.39645628 26.62756348 43.5838623 C23.93972825 48.94482514 21.24181481 54.30060883 18.53662109 59.65283203 C14.74700674 67.15060806 10.97525957 74.6572594 7.20730877 82.16594028 C4.25697597 88.04379964 1.30221367 93.91943382 -1.65380859 99.79443359 C-1.96589327 100.41469736 -2.27797794 101.03496113 -2.59951973 101.67402077 C-15.55597866 127.41764409 -15.55597866 127.41764409 -21.65075684 138.45593262 C-25.02129277 145.17100632 -26.5317033 151.46418362 -24.43505859 158.79052734 C-21.97319213 164.95545129 -18.85332027 168.65054297 -12.73432827 171.50052643 C-10.06899032 172.40638974 -8.07406907 172.64318537 -5.27174377 172.65319824 C-4.322742 172.66147141 -3.37374023 172.66974457 -2.39598083 172.67826843 C-1.36675003 172.67728653 -0.33751923 172.67630463 0.72290039 172.67529297 C2.36276917 172.68554253 2.36276917 172.68554253 4.0357666 172.69599915 C6.40710332 172.70957754 8.77846924 172.71863698 11.1498394 172.72370911 C14.90314302 172.73199899 18.65620344 172.75250516 22.40943909 172.77624512 C30.37790422 172.82446861 38.34639521 172.85750633 46.31494141 172.88818359 C55.54546693 172.92373043 64.7758861 172.96576908 74.00630379 173.02412415 C77.70331015 173.04418815 81.40022533 173.05251141 85.09727478 173.0604248 C87.36571585 173.07339822 89.63415389 173.08691867 91.90258789 173.10107422 C92.92979446 173.10009232 93.95700104 173.09911041 95.01533508 173.09809875 C101.59860054 173.15532001 106.69848309 173.25874705 111.62744141 178.07568359 C115.52981056 182.9791841 118.91447343 188.28104773 122.33056641 193.52880859 C123.9304752 195.981028 125.57401269 198.38199439 127.29931641 200.74755859 C128.02634766 201.76333984 128.75337891 202.77912109 129.50244141 203.82568359 C130.15470703 204.71126953 130.80697266 205.59685547 131.47900391 206.50927734 C133.35414144 210.36954652 132.97518155 213.11628393 132.87744141 217.38818359 C118.73906183 217.41193071 104.60068549 217.42929451 90.46228981 217.43999577 C83.89217039 217.44514046 77.32206466 217.45207792 70.75195312 217.46362305 C54.59804504 217.49095716 38.44479928 217.48173162 22.29103088 217.40384674 C20.0519322 217.39357271 17.81282608 217.38478834 15.57371521 217.3776474 C9.57754189 217.35845109 3.58265766 217.31613193 -2.41295242 217.23031425 C-4.16943752 217.20838448 -5.92604443 217.19439947 -7.68265915 217.18934822 C-25.08473421 217.12525742 -36.73186189 211.93410821 -49.52490234 200.18115234 C-63.68611509 185.57195747 -72.54994325 165.23457684 -73.43505859 144.95068359 C-73.0104055 133.93988595 -69.07606679 124.26974217 -64.15405273 114.57714844 C-63.54810317 113.35901917 -62.94335693 112.14029072 -62.33970642 110.92102051 C-60.71610817 107.65071092 -59.07533999 104.38931609 -57.43049932 101.12964964 C-55.70444881 97.70293079 -53.99287908 94.26898713 -52.27915955 90.83609009 C-49.40475697 85.08371584 -46.51923058 79.33703251 -43.62670898 73.59375 C-40.28520685 66.95868246 -36.96094279 60.31519846 -33.64577776 53.66693723 C-30.44670599 47.25232162 -27.23634513 40.84342284 -24.02053642 34.43718338 C-22.65541953 31.71733711 -21.2941489 28.99561709 -19.93593025 26.27231979 C-18.33878313 23.07136877 -16.73176741 19.87556758 -15.11699867 16.68347168 C-14.24521841 14.95438132 -13.38321863 13.22037065 -12.52151489 11.48623657 C-11.99867416 10.45754456 -11.47583344 9.42885254 -10.93714905 8.36898804 C-10.26271051 7.02683511 -10.26271051 7.02683511 -9.57464695 5.65756798 C-7.10391864 1.79621049 -4.58488674 0.01560224 0 0 Z " fill="#EFD684" transform="translate(183.12255859375,150.61181640625)"/>
<path d="M0 0 C1.38691544 -0.01441132 1.38691544 -0.01441132 2.80184937 -0.02911377 C3.79874786 -0.03336365 4.79564636 -0.03761353 5.82275391 -0.04199219 C6.84986481 -0.04769226 7.87697571 -0.05339233 8.93521118 -0.05926514 C11.10897797 -0.06871352 13.28275906 -0.07524847 15.45654297 -0.07910156 C18.77938851 -0.08880897 22.101616 -0.11983504 25.42431641 -0.15136719 C27.5362919 -0.15789719 29.64827182 -0.16314767 31.76025391 -0.16699219 C32.75310394 -0.17933899 33.74595398 -0.19168579 34.76889038 -0.20440674 C43.52197404 -0.1761884 43.52197404 -0.1761884 47.42431641 3.16113281 C48.78442383 4.80859375 48.78442383 4.80859375 49.84228516 6.64550781 C50.46369385 7.70801758 50.46369385 7.70801758 51.09765625 8.79199219 C51.5354541 9.57380859 51.97325195 10.355625 52.42431641 11.16113281 C52.9020752 11.99966797 53.37983398 12.83820313 53.87207031 13.70214844 C55.50880284 16.59690835 57.12421198 19.50286665 58.73681641 22.41113281 C63.65444063 31.23978445 68.6210547 40.03741457 73.64697266 48.80480957 C74.67096358 50.59277851 75.69259812 52.38207165 76.71337891 54.171875 C79.6373629 59.29768798 82.56895813 64.41775623 85.55322266 69.50878906 C92.93914694 82.22755275 97.60679235 93.76543856 94.19848633 108.61645508 C92.74437894 113.39607077 90.30752781 117.66523908 87.92431641 122.03613281 C87.39040283 123.03628418 86.85648926 124.03643555 86.30639648 125.06689453 C85.2125792 127.11546663 84.11468973 129.16186972 83.01269531 131.20605469 C81.10394883 134.75715635 79.23067042 138.32598618 77.36181641 141.89819336 C75.76095271 144.95640582 74.1488591 148.00860606 72.53515625 151.06005859 C71.80522654 152.44066851 71.07635274 153.82183731 70.34863281 155.20361328 C69.37765532 157.04566209 68.40188062 158.88507313 67.42431641 160.72363281 C66.88806641 161.73554688 66.35181641 162.74746094 65.79931641 163.79003906 C64.42431641 166.16113281 64.42431641 166.16113281 62.42431641 168.16113281 C59.53662109 168.36962891 59.53662109 168.36962891 55.84619141 168.30957031 C55.18278748 168.30106049 54.51938354 168.29255066 53.83587646 168.28378296 C51.69837973 168.25321696 49.5615182 168.20774033 47.42431641 168.16113281 C46.03044403 168.13755318 44.63656373 168.11443713 43.24267578 168.09179688 C39.7563052 168.02995144 36.27113755 167.94301007 32.78564453 167.84375 C31.35671564 167.80475518 29.9276644 167.77004695 28.49853516 167.73925781 C26.39531692 167.69378282 24.29276738 167.63593576 22.18994141 167.57519531 C20.96049805 167.54377441 19.73105469 167.51235352 18.46435547 167.47998047 C15.42431641 167.16113281 15.42431641 167.16113281 12.42431641 165.16113281 C11.01673884 157.93062909 15.05365234 152.14265618 18.33056641 145.91113281 C19.24625288 144.12026009 20.16192365 142.32937914 21.07666779 140.5380249 C23.00515011 136.77279714 24.95892926 133.02063651 26.90814209 129.26611328 C28.51463135 126.16933399 30.11544038 123.06992068 31.70202637 119.96289062 C32.89086123 117.63780228 34.09231663 115.31911343 35.30773926 113.0078125 C39.29134401 105.48695151 39.29134401 105.48695151 39.42431641 97.16113281 C38.16291921 93.99111662 38.16291921 93.99111662 36.28369141 90.96582031 C35.62498047 89.83789062 34.96626953 88.70996094 34.28759766 87.54785156 C33.94035645 86.97083496 33.59311523 86.39381836 33.23535156 85.79931641 C32.17767999 84.04172228 31.1410913 82.27305663 30.10791016 80.50097656 C25.48798669 71.42523053 25.48798669 71.42523053 18.04931641 65.22363281 C14.62932858 65.14220453 12.48170056 65.5984698 9.42431641 67.16113281 C8.71799317 69.14747415 8.06185189 71.15165702 7.42431641 73.16113281 C6.01864047 76.27088191 4.46934614 79.30615363 2.92431641 82.34863281 C2.48506836 83.2199585 2.04582031 84.09128418 1.59326172 84.98901367 C-3.01981232 94.10434947 -7.76865081 103.14687525 -12.57568359 112.16113281 C-12.90117187 112.77472656 -13.22666016 113.38832031 -13.56201172 114.02050781 C-18.23384374 122.81929296 -18.23384374 122.81929296 -20.57568359 125.16113281 C-22.45968628 125.42855835 -22.45968628 125.42855835 -24.77832031 125.45166016 C-25.64617157 125.46441986 -26.51402283 125.47717957 -27.40817261 125.49032593 C-28.34774811 125.49255157 -29.28732361 125.49477722 -30.25537109 125.49707031 C-31.21968048 125.50372711 -32.18398987 125.51038391 -33.17752075 125.51724243 C-35.22021575 125.52738003 -37.26294394 125.53205911 -39.30566406 125.53173828 C-42.431383 125.53610584 -45.55568397 125.57239839 -48.68115234 125.61035156 C-50.66422042 125.61622058 -52.64729522 125.62018941 -54.63037109 125.62207031 C-55.56589813 125.63644135 -56.50142517 125.65081238 -57.46530151 125.6656189 C-61.41638634 125.63780686 -63.8489801 125.60889427 -67.25976562 123.50732422 C-68.57568359 121.16113281 -68.57568359 121.16113281 -68.48754883 118.26147461 C-67.57072805 115.14428398 -66.45627816 112.45146884 -64.98583984 109.55566406 C-64.45410156 108.49992187 -63.92236328 107.44417969 -63.37451172 106.35644531 C-62.80152344 105.24011719 -62.22853516 104.12378906 -61.63818359 102.97363281 C-61.0484375 101.80960937 -60.45869141 100.64558594 -59.85107422 99.44628906 C-56.10106945 92.06816485 -52.27394648 84.73249326 -48.38647461 77.42602539 C-44.24752371 69.61723237 -40.33048421 61.69994896 -36.39868164 53.78540039 C-32.76976128 46.49811718 -29.03185339 39.28147788 -25.18652344 32.10644531 C-21.50573196 25.17576958 -18.18340032 18.08369153 -14.97338867 10.92358398 C-14.58691162 10.0841626 -14.20043457 9.24474121 -13.80224609 8.37988281 C-13.46789551 7.63673828 -13.13354492 6.89359375 -12.7890625 6.12792969 C-9.77526218 1.24278374 -5.47358773 0.04595837 0 0 Z " fill="#EFD783" transform="translate(292.57568359375,146.8388671875)"/>
<path d="M0 0 C0.99 0.33 1.98 0.66 3 1 C4.26433641 5.98340783 3.76534287 8.39692851 1.3125 12.875 C0.48105469 14.43347656 0.48105469 14.43347656 -0.3671875 16.0234375 C-0.90601563 17.00570313 -1.44484375 17.98796875 -2 19 C-5.04181947 24.78881724 -5.04181947 24.78881724 -7 31 C-7.99 31 -8.98 31 -10 31 C-10.99 33.475 -10.99 33.475 -12 36 C-12.33 35.34 -12.66 34.68 -13 34 C-11.92016602 31.51318359 -11.92016602 31.51318359 -10.25390625 28.3984375 C-9.66416016 27.26792969 -9.07441406 26.13742187 -8.46679688 24.97265625 C-7.52058848 23.17894025 -6.56958761 21.38818059 -5.60913086 19.60205078 C-0.51653854 10.30271987 -0.51653854 10.30271987 0 0 Z " fill="#E7D394" transform="translate(332,243)"/>
<path d="M0 0 C0.66 0.33 1.32 0.66 2 1 C-0.02529968 7.450269 -2.97609714 13.2825239 -6 19.3125 C-6.5465625 20.42173828 -7.093125 21.53097656 -7.65625 22.67382812 C-8.1821875 23.72634766 -8.708125 24.77886719 -9.25 25.86328125 C-9.72953125 26.82532471 -10.2090625 27.78736816 -10.703125 28.77856445 C-12 31 -12 31 -14 32 C-14.1875 29.125 -14.1875 29.125 -14 26 C-13.01 25.34 -12.02 24.68 -11 24 C-11.33 21.69 -11.66 19.38 -12 17 C-11.67 17.66 -11.34 18.32 -11 19 C-10.34 19 -9.68 19 -9 19 C-7.02 14.545 -7.02 14.545 -5 10 C-4.34 10 -3.68 10 -3 10 C-3 8.68 -3 7.36 -3 6 C-2.34 6 -1.68 6 -1 6 C-0.67 4.02 -0.34 2.04 0 0 Z " fill="#E7D493" transform="translate(183,240)"/>
<path d="M0 0 C1.20153575 3.97365037 0.637386 6.15214289 -1 10 C-1.9793879 11.02019573 -2.97895449 12.02149805 -4 13 C-5.18357886 15.63017524 -6.08784379 18.26353137 -7 21 C-8.26628904 23.37492763 -9.6406744 25.67599172 -11 28 C-11.66 28 -12.32 28 -13 28 C-11.74577315 24.01207054 -10.28484419 20.33050596 -8.3984375 16.6015625 C-7.90859375 15.62832031 -7.41875 14.65507812 -6.9140625 13.65234375 C-6.40617187 12.65332031 -5.89828125 11.65429688 -5.375 10.625 C-4.859375 9.60277344 -4.34375 8.58054688 -3.8125 7.52734375 C-2.54528127 5.01637331 -1.27435444 2.50735439 0 0 Z " fill="#E6D495" transform="translate(132,240)"/>
<path d="M0 0 C0.99 0 1.98 0 3 0 C3 0.66 3 1.32 3 2 C17.19 2.33 31.38 2.66 46 3 C46 3.33 46 3.66 46 4 C39.93108308 4.0493933 33.86228287 4.08571643 27.79321289 4.10986328 C25.728088 4.11992835 23.66297737 4.13358154 21.59790039 4.15087891 C18.63163736 4.17510493 15.66556256 4.18647797 12.69921875 4.1953125 C11.31158577 4.21079636 11.31158577 4.21079636 9.8959198 4.22659302 C9.03525406 4.22674408 8.17458832 4.22689514 7.2878418 4.22705078 C6.53061325 4.231492 5.7733847 4.23593323 4.99320984 4.24050903 C3 4 3 4 0 2 C0 1.34 0 0.68 0 0 Z " fill="#E7D590" transform="translate(225,268)"/>
<path d="M0 0 C0.66 0 1.32 0 2 0 C2.33 0.66 2.66 1.32 3 2 C5.01669827 3.13350534 5.01669827 3.13350534 7 4 C7 4.66 7 5.32 7 6 C7.66 6 8.32 6 9 6 C9.33 6.99 9.66 7.98 10 9 C9.34 9 8.68 9 8 9 C8.33 10.98 8.66 12.96 9 15 C4.95808535 10.50898372 2.56325559 5.41015011 0 0 Z " fill="#E8D68C" transform="translate(321,224)"/>
<path d="M0 0 C-1.49170266 4.9723422 -3.60457417 9.41845739 -6 14 C-6.66 13.67 -7.32 13.34 -8 13 C-8 12.34 -8 11.68 -8 11 C-7.34 11 -6.68 11 -6 11 C-6.33 8.36 -6.66 5.72 -7 3 C-2.25 0 -2.25 0 0 0 Z " fill="#E9D590" transform="translate(217,177)"/>
<path d="M0 0 C0.66 0.66 1.32 1.32 2 2 C-1.3 8.6 -4.6 15.2 -8 22 C-9.43958253 17.68125241 -7.68674683 15.42852144 -5.78125 11.46484375 C-5.3584375 10.63082031 -4.935625 9.79679688 -4.5 8.9375 C-4.0771875 8.10089844 -3.654375 7.26429688 -3.21875 6.40234375 C-2.8165625 5.60957031 -2.414375 4.81679687 -2 4 C-1.33243137 2.66711803 -0.6654341 1.33394891 0 0 Z " fill="#E5D497" transform="translate(206,195)"/>
<path d="M0 0 C0.625 1.875 0.625 1.875 1 4 C0.34 4.66 -0.32 5.32 -1 6 C-1.16687448 8.58354218 -1.16687448 8.58354218 -1 11 C-1.61875 11.061875 -2.2375 11.12375 -2.875 11.1875 C-5.27761141 11.828919 -5.27761141 11.828919 -6.25 14.5625 C-6.4975 15.366875 -6.745 16.17125 -7 17 C-7.33 16.34 -7.66 15.68 -8 15 C-6.75874818 12.38838269 -5.4689476 9.89498214 -4.0625 7.375 C-3.48338867 6.31539062 -3.48338867 6.31539062 -2.89257812 5.234375 C-1.93551304 3.48566349 -0.96865969 1.74231568 0 0 Z " fill="#EADAA3" transform="translate(264,186)"/>
<path d="M0 0 C0.66 0.33 1.32 0.66 2 1 C-0.64 5.95 -3.28 10.9 -6 16 C-7 12 -7 12 -6 10 C-5.34 10 -4.68 10 -4 10 C-3.79503906 9.36191406 -3.59007812 8.72382813 -3.37890625 8.06640625 C-3.10949219 7.24011719 -2.84007812 6.41382813 -2.5625 5.5625 C-2.16224609 4.32693359 -2.16224609 4.32693359 -1.75390625 3.06640625 C-1 1 -1 1 0 0 Z " fill="#E5D497" transform="translate(192,224)"/>
<path d="M0 0 C3.25 0 3.25 0 7 1 C8.94603894 3.43801507 10.20223758 5.98492733 11 9 C10.67 9.99 10.34 10.98 10 12 C9.61328125 11.38511719 9.2265625 10.77023438 8.828125 10.13671875 C8.30734375 9.32847656 7.7865625 8.52023438 7.25 7.6875 C6.73953125 6.88699219 6.2290625 6.08648437 5.703125 5.26171875 C3.99722239 2.99631139 2.34191855 1.57315833 0 0 Z " fill="#E7D596" transform="translate(310,211)"/>
<path d="M0 0 C1.38495566 2.76991133 0.64642852 4.12046792 -0.1875 7.0625 C-0.42855469 7.96097656 -0.66960937 8.85945312 -0.91796875 9.78515625 C-2 12 -2 12 -4.11328125 12.80859375 C-4.73589844 12.87175781 -5.35851562 12.93492187 -6 13 C-4.58707905 8.1725201 -2.57025846 4.2837641 0 0 Z " fill="#EDD99D" transform="translate(239,235)"/>
<path d="M0 0 C0.66 0 1.32 0 2 0 C0.68938409 4.23429756 -0.94356259 8.07407404 -3 12 C-5 8.25 -5 8.25 -5 6 C-4.34 6 -3.68 6 -3 6 C-2.67 4.68 -2.34 3.36 -2 2 C-1.34 2 -0.68 2 0 2 C0 1.34 0 0.68 0 0 Z " fill="#EBD496" transform="translate(293,228)"/>
<path d="M0 0 C1.04449911 3.13349732 0.93423645 3.98968256 0 7 C0.66 7 1.32 7 2 7 C1.67 8.32 1.34 9.64 1 11 C0.67 10.01 0.34 9.02 0 8 C-1.65 9.32 -3.3 10.64 -5 12 C-3.68938409 7.76570244 -2.05643741 3.92592596 0 0 Z " fill="#EBD699" transform="translate(166,172)"/>
<path d="M0 0 C3.50509251 0.56263958 4.95268008 1.65185182 7.1875 4.375 C7.69667969 4.98085938 8.20585937 5.58671875 8.73046875 6.2109375 C10 8 10 8 11 11 C9.02 10.34 7.04 9.68 5 9 C5.33 8.01 5.66 7.02 6 6 C5.01 5.195625 4.02 4.39125 3 3.5625 C2.01 2.716875 1.02 1.87125 0 1 C0 0.67 0 0.34 0 0 Z " fill="#E4D58B" transform="translate(288,325)"/>
<path d="M0 0 C1.32 0 2.64 0 4 0 C5 3 5 3 3.5625 6.1875 C2.7890625 7.5796875 2.7890625 7.5796875 2 9 C1.67 9 1.34 9 1 9 C0.67 6.03 0.34 3.06 0 0 Z " fill="#ECD490" transform="translate(162,275)"/>
<path d="M0 0 C0.88901072 3.16092701 0.88810398 4.84229696 0 8 C0 9.32 0 10.64 0 12 C-0.66 12 -1.32 12 -2 12 C-3.1171875 10.265625 -3.1171875 10.265625 -4 8 C-3.3203125 5.859375 -3.3203125 5.859375 -2.125 3.75 C-1.73570312 3.04359375 -1.34640625 2.3371875 -0.9453125 1.609375 C-0.63335937 1.07828125 -0.32140625 0.5471875 0 0 Z " fill="#EAD597" transform="translate(148,208)"/>
<path d="M0 0 C2 2 2 2 2 5 C1.01 5 0.02 5 -1 5 C-1.144375 5.598125 -1.28875 6.19625 -1.4375 6.8125 C-1.8872439 8.56150404 -2.42892341 10.28677023 -3 12 C-3.66 12 -4.32 12 -5 12 C-3.68938409 7.76570244 -2.05643741 3.92592596 0 0 Z " fill="#E9D598" transform="translate(156,192)"/>
<path d="M0 0 C0.66 0.33 1.32 0.66 2 1 C1.35494404 4.48330216 0.01782732 7.09432866 -2 10 C-2.66 10 -3.32 10 -4 10 C-2.8905928 6.51329166 -1.73662334 3.22515763 0 0 Z " fill="#E6D797" transform="translate(274,166)"/>
<path d="M0 0 C0.33 0 0.66 0 1 0 C0.67 2.97 0.34 5.94 0 9 C-1.32 9.33 -2.64 9.66 -4 10 C-2.8905928 6.51329166 -1.73662334 3.22515763 0 0 Z " fill="#EBD797" transform="translate(173,158)"/>
<path d="M0 0 C2.09350689 3.4019487 2.17942163 6.05272412 2 10 C1.01 9.67 0.02 9.34 -1 9 C-1.125 2.25 -1.125 2.25 0 0 Z " fill="#E4D48A" transform="translate(306,303)"/>
<path d="M0 0 C0.99 0 1.98 0 3 0 C1.84414715 3.91211733 0.64465038 6.8745041 -2 10 C-1.85950482 8.52031676 -1.71245174 7.04125484 -1.5625 5.5625 C-1.48128906 4.73878906 -1.40007812 3.91507812 -1.31640625 3.06640625 C-1 1 -1 1 0 0 Z " fill="#E5D58E" transform="translate(277,257)"/>
<path d="M0 0 C0.66 0 1.32 0 2 0 C2 0.99 2 1.98 2 3 C1.34 3 0.68 3 0 3 C-0.66 4.98 -1.32 6.96 -2 9 C-2.66 9 -3.32 9 -4 9 C-2.94124926 5.59687262 -1.99097846 2.98646769 0 0 Z " fill="#E6D596" transform="translate(279,157)"/>
<path d="M0 0 C0.66 0 1.32 0 2 0 C2.33 0.99 2.66 1.98 3 3 C2.34 3 1.68 3 1 3 C1.33 4.98 1.66 6.96 2 9 C-2 4.25 -2 4.25 -2 2 C-1.34 2 -0.68 2 0 2 C0 1.34 0 0.68 0 0 Z " fill="#EED599" transform="translate(328,230)"/>
<path d="M0 0 C0.66 0 1.32 0 2 0 C2.66 1.98 3.32 3.96 4 6 C3.01 6.495 3.01 6.495 2 7 C0.4375 5.75 0.4375 5.75 -1 4 C-0.6875 1.8125 -0.6875 1.8125 0 0 Z " fill="#EDD575" transform="translate(361,193)"/>
<path d="M0 0 C4.42857143 5.14285714 4.42857143 5.14285714 5 9 C4.01 8.67 3.02 8.34 2 8 C0.5522078 5.10441559 0 3.25811062 0 0 Z " fill="#E5D58B" transform="translate(362,190)"/>
<path d="M0 0 C0.33 0 0.66 0 1 0 C1 2.31 1 4.62 1 7 C-0.32 7.33 -1.64 7.66 -3 8 C-1.125 2.25 -1.125 2.25 0 0 Z " fill="#EBD499" transform="translate(160,184)"/>
<path d="" fill="#FFFFFF" transform="translate(0,0)"/>
<path d="" fill="#FFFFFF" transform="translate(0,0)"/>
<path d="" fill="#FFFFFF" transform="translate(0,0)"/>
<path d="" fill="#FFFFFF" transform="translate(0,0)"/>
<path d="" fill="#FFFFFF" transform="translate(0,0)"/>
<path d="" fill="#FFFFFF" transform="translate(0,0)"/>
<path d="" fill="#FFFFFF" transform="translate(0,0)"/>
<path d="" fill="#FFFFFF" transform="translate(0,0)"/>
<path d="" fill="#FFFFFF" transform="translate(0,0)"/>
<path d="" fill="#FFFFFF" transform="translate(0,0)"/>
<path d="" fill="#FFFFFF" transform="translate(0,0)"/>
<path d="" fill="#FFFFFF" transform="translate(0,0)"/>
<path d="" fill="#FFFFFF" transform="translate(0,0)"/>
<path d="" fill="#FFFFFF" transform="translate(0,0)"/>
<path d="" fill="#FFFFFF" transform="translate(0,0)"/>
<path d="" fill="#FFFFFF" transform="translate(0,0)"/>
<path d="" fill="#FFFFFF" transform="translate(0,0)"/>
<path d="" fill="#FFFFFF" transform="translate(0,0)"/>
<path d="" fill="#FFFFFF" transform="translate(0,0)"/>
<path d="" fill="#FFFFFF" transform="translate(0,0)"/>
<path d="" fill="#FFFFFF" transform="translate(0,0)"/>
<path d="" fill="#FFFFFF" transform="translate(0,0)"/>
<path d="" fill="#FFFFFF" transform="translate(0,0)"/>
<path d="" fill="#FFFFFF" transform="translate(0,0)"/>
<path d="" fill="#FFFFFF" transform="translate(0,0)"/>
<path d="" fill="#FFFFFF" transform="translate(0,0)"/>
<path d="" fill="#FFFFFF" transform="translate(0,0)"/>
<path d="" fill="#FFFFFF" transform="translate(0,0)"/>
<path d="" fill="#FFFFFF" transform="translate(0,0)"/>
<path d="" fill="#FFFFFF" transform="translate(0,0)"/>
<path d="" fill="#FFFFFF" transform="translate(0,0)"/>
<path d="" fill="#FFFFFF" transform="translate(0,0)"/>
<path d="" fill="#FFFFFF" transform="translate(0,0)"/>
<path d="" fill="#FFFFFF" transform="translate(0,0)"/>
<path d="" fill="#FFFFFF" transform="translate(0,0)"/>
<path d="" fill="#FFFFFF" transform="translate(0,0)"/>
<path d="" fill="#FFFFFF" transform="translate(0,0)"/>
<path d="" fill="#FFFFFF" transform="translate(0,0)"/>
<path d="" fill="#FFFFFF" transform="translate(0,0)"/>
<path d="" fill="#FFFFFF" transform="translate(0,0)"/>
<path d="" fill="#FFFFFF" transform="translate(0,0)"/>
<path d="" fill="#FFFFFF" transform="translate(0,0)"/>
<path d="" fill="#FFFFFF" transform="translate(0,0)"/>
<path d="" fill="#FFFFFF" transform="translate(0,0)"/>
<path d="" fill="#FFFFFF" transform="translate(0,0)"/>
<path d="" fill="#FFFFFF" transform="translate(0,0)"/>
<path d="" fill="#FFFFFF" transform="translate(0,0)"/>
<path d="" fill="#FFFFFF" transform="translate(0,0)"/>
<path d="" fill="#FFFFFF" transform="translate(0,0)"/>
<path d="" fill="#FFFFFF" transform="translate(0,0)"/>
<path d="" fill="#FFFFFF" transform="translate(0,0)"/>
<path d="" fill="#FFFFFF" transform="translate(0,0)"/>
<path d="" fill="#FFFFFF" transform="translate(0,0)"/>
<path d="" fill="#FFFFFF" transform="translate(0,0)"/>
<path d="" fill="#FFFFFF" transform="translate(0,0)"/>
<path d="" fill="#FFFFFF" transform="translate(0,0)"/>
<path d="" fill="#FFFFFF" transform="translate(0,0)"/>
<path d="" fill="#FFFFFF" transform="translate(0,0)"/>
<path d="" fill="#FFFFFF" transform="translate(0,0)"/>
<path d="" fill="#FFFFFF" transform="translate(0,0)"/>
<path d="" fill="#FFFFFF" transform="translate(0,0)"/>
<path d="" fill="#FFFFFF" transform="translate(0,0)"/>
<path d="" fill="#FFFFFF" transform="translate(0,0)"/>
<path d="" fill="#FFFFFF" transform="translate(0,0)"/>
<path d="" fill="#FFFFFF" transform="translate(0,0)"/>
<path d="" fill="#FFFFFF" transform="translate(0,0)"/>
<path d="" fill="#FFFFFF" transform="translate(0,0)"/>
<path d="" fill="#FFFFFF" transform="translate(0,0)"/>
<path d="" fill="#FFFFFF" transform="translate(0,0)"/>
<path d="" fill="#FFFFFF" transform="translate(0,0)"/>
<path d="" fill="#FFFFFF" transform="translate(0,0)"/>
<path d="" fill="#FFFFFF" transform="translate(0,0)"/>
<path d="" fill="#FFFFFF" transform="translate(0,0)"/>
<path d="" fill="#FFFFFF" transform="translate(0,0)"/>
<path d="" fill="#FFFFFF" transform="translate(0,0)"/>
<path d="" fill="#FFFFFF" transform="translate(0,0)"/>
<path d="" fill="#FFFFFF" transform="translate(0,0)"/>
<path d="" fill="#FFFFFF" transform="translate(0,0)"/>
</svg>
